<svg xmlns="http://www.w3.org/2000/svg" width="48" height="48"><g fill-rule="evenodd"><path fill="#82dd47" d="M48 24a24 24 0 0 1-24 24A24 24 0 0 1 0 24 24 24 0 0 1 24 0a24 24 0 0 1 24 24z"/><path fill="none" stroke="#0d386a" d="M30.75 39.5V21.75"/><path fill="none" stroke="#0d386a" stroke-linecap="round" stroke-linejoin="round" d="M19.514 14.5h.986M30.257 19.25h.986M30.257 20.75h.986"/><path d="M31.148 2193.634a.5.5 0 0 0-.363.158l-4.25 4.5a.5.5 0 0 0-.137.342v7.75a.5.5 0 0 0 .403.49l2.5.5a.5.5 0 0 0 .097.01h7a.5.5 0 0 0 .5-.5v-8.5a.5.5 0 0 0-.113-.316l-3.5-4.25a.5.5 0 0 0-.387-.184z" style="line-height:normal;text-indent:0;text-align:start;text-decoration-line:none;text-decoration-style:solid;text-decoration-color:#000;text-transform:none;isolation:auto;mix-blend-mode:normal" fill="#0d386a" color="#000" font-family="sans-serif" overflow="visible" transform="translate(-10.149 -2170.885)"/><path d="M31.484 2194.634h1.178l2.674 3.246h-5.19zM29.658 2196.438l-.596 1.45-.86.096zM29.898 2198.88h6v7.504h-2v-3.25a.5.5 0 0 0-.5-.5h-2a.5.5 0 0 0-.5.5v3.25h-1zM28.898 2198.911v7.363l-1.5-.298v-6.897z" style="line-height:normal;text-indent:0;text-align:start;text-decoration-line:none;text-decoration-style:solid;text-decoration-color:#000;text-transform:none;isolation:auto;mix-blend-mode:normal" fill="#ff8e35" color="#000" font-family="sans-serif" overflow="visible" transform="translate(-10.149 -2170.885)"/><path d="M31.898 2203.634h1v2.75h-1z" style="line-height:normal;text-indent:0;text-align:start;text-decoration-line:none;text-decoration-style:solid;text-decoration-color:#000;text-transform:none;isolation:auto;mix-blend-mode:normal" fill="#cdcebe" color="#000" font-family="sans-serif" overflow="visible" transform="translate(-10.149 -2170.885)"/><path fill="none" stroke="#0d386a" stroke-linecap="round" stroke-linejoin="round" d="M30.75 17v-2.75A5.25 5.25 0 0 0 25.5 9h-.25A5.25 5.25 0 0 0 20 14.25v3.5c0 .966.783 1.75 1.75 1.75H22a1.5 1.5 0 0 0 0-3"/><path fill="none" stroke="#0d386a" d="M30.75 16.25v2"/><path d="M31.898 2191.635c-.822 0-1.5.677-1.5 1.5 0 .822.678 1.5 1.5 1.5.823 0 1.5-.678 1.5-1.5 0-.823-.677-1.5-1.5-1.5z" style="line-height:normal;text-indent:0;text-align:start;text-decoration-line:none;text-decoration-style:solid;text-decoration-color:#000;text-transform:none;isolation:auto;mix-blend-mode:normal" fill="#0d386a" color="#000" font-family="sans-serif" overflow="visible" transform="translate(-10.149 -2170.885)"/><path d="M31.898 2192.635c.283 0 .5.218.5.5 0 .282-.217.5-.5.5a.493.493 0 0 1-.5-.5c0-.282.218-.5.5-.5z" style="line-height:normal;text-indent:0;text-align:start;text-decoration-line:none;text-decoration-style:solid;text-decoration-color:#000;text-transform:none;isolation:auto;mix-blend-mode:normal" fill="#e85271" color="#000" font-family="sans-serif" overflow="visible" transform="translate(-10.149 -2170.885)"/><path fill="none" stroke="#0d386a" stroke-linecap="round" stroke-linejoin="round" d="M21.75 21.25V19"/><path fill="#fdfe77" d="M22.265 31.602c-.368.013-.723-.328-.89-.656-.144-.28-.125-.653-.008-.945.175-.438.984-1.016.984-1.016s.641.556.781.938c.108.293.138.653.008.937-.16.348-.493.73-.875.742z"/><path fill="none" stroke="#0d386a" stroke-linecap="round" stroke-linejoin="round" stroke-width="1.002" d="M21.601 31.1a.924.924 0 0 1-.27-.655c0-.693 1.163-.986.92-1.695.017-.057.971 1.018.917 1.695a.925.925 0 0 1-.269.654"/></g></svg>